<svg xmlns="http://www.w3.org/2000/svg" viewBox="0 0 720 520" role="img" aria-labelledby="title desc">
  <title id="title">Wolf on mountain</title>
  <desc id="desc">A stylized wolf standing on a mountain ridge for the tournament dashboard hero.</desc>
  <defs>
    <linearGradient id="fur" x1="20%" x2="90%" y1="10%" y2="90%">
      <stop offset="0" stop-color="#f6fbff"/>
      <stop offset="0.48" stop-color="#9cb4cb"/>
      <stop offset="1" stop-color="#516579"/>
    </linearGradient>
    <linearGradient id="ridge" x1="0" x2="1" y1="0" y2="1">
      <stop offset="0" stop-color="#7da0c7"/>
      <stop offset="1" stop-color="#1e334c"/>
    </linearGradient>
    <filter id="glow" x="-20%" y="-20%" width="140%" height="140%">
      <feGaussianBlur stdDeviation="5" result="blur"/>
      <feMerge>
        <feMergeNode in="blur"/>
        <feMergeNode in="SourceGraphic"/>
      </feMerge>
    </filter>
  </defs>
  <g opacity="0.24" fill="none" stroke="#cfe6ff" stroke-width="2">
    <path d="M24 358c108-70 181-79 268-38 91 43 174 30 280-58 54-45 95-61 132-55"/>
    <path d="M46 397c95-46 184-49 266-9 108 52 232 40 362-51"/>
  </g>
  <path d="M188 422c96-55 185-73 262-57 64 13 117 44 210 31l38 62H94l94-36z" fill="url(#ridge)" opacity="0.92"/>
  <path d="M258 411c71-31 127-38 198-25 61 11 112 36 174 25" fill="none" stroke="#d8ebff" stroke-width="5" opacity="0.5"/>
  <g filter="url(#glow)">
    <path d="M394 183l37-64 28 75c45 14 76 52 83 95 38 17 71 40 102 78-42-16-85-24-130-21-36 36-85 51-140 37-48-12-84-42-105-83l-74-13 67-29c18-42 61-71 132-75z" fill="url(#fur)"/>
    <path d="M427 123l9 77 24-7-26-70h-7zM330 190l65-8 35-59-36 73-64-6z" fill="#eff7ff" opacity="0.72"/>
    <path d="M332 244c39 22 85 21 139-3 26 37 59 62 99 78-48-4-88-20-119-47-47 24-90 20-119-28z" fill="#233957" opacity="0.42"/>
    <path d="M525 291c12 49 1 91-28 127h-30c27-35 37-73 25-114l33-13zM376 305c-13 39-17 76-11 113h-31c-11-43-4-83 19-121l23 8zM441 319c1 34-3 67-13 99h-29c8-32 12-65 10-99h32z" fill="#324b68"/>
    <path d="M468 210c22-5 39 2 51 19-20-5-39-6-57-2l6-17z" fill="#edf7ff" opacity="0.8"/>
    <circle cx="493" cy="222" r="5" fill="#0f1f33"/>
    <path d="M518 233c18 2 34 8 48 18-19 1-35-3-48-18z" fill="#17263b" opacity="0.72"/>
  </g>
</svg>
